# xmcd
#
# Track frame offsets: 
#        150
#        15194
#        34041
#        52957
#        65178
#        84809
#        100427
#        113182
#        125684
#        153685
#        168394
#        188756
#        223391
#        235007
#        250730
#
# Disc length: 3528 seconds
#
# Revision: 0
# Processed by: cddbd v1.5.2PL0 Copyright (c) Steve Scherf et al.
# Submitted via: ExactAudioCopy v1.2
#
DISCID=c80dc60f
DTITLE=Blues Ghetto - Down in the Ghetto
DYEAR=2017
DGENRE=Blues
TTITLE0=Two Bones and a Pick
TTITLE1=Down There
TTITLE2=Ah'w Baby
TTITLE3=My Home Is in the Ghetto
TTITLE4=One More Chance with You
TTITLE5=Baby Please Don't Go
TTITLE6=Wilson Boogie
TTITLE7=Don't Boss Me
TTITLE8=Miles Away
TTITLE9=Ain't Gonna Do It
TTITLE10=Rock with Me
TTITLE11=Sadie
TTITLE12=Okie Dokie Stomp
TTITLE13=Rollin' and Tumblin'
TTITLE14=Boogie Rambler
EXTD=
EXTT0=
EXTT1=
EXTT2=
EXTT3=
EXTT4=
EXTT5=
EXTT6=
EXTT7=
EXTT8=
EXTT9=
EXTT10=
EXTT11=
EXTT12=
EXTT13=
EXTT14=
PLAYORDER=
